<?xml version="1.0" encoding="UTF-8" standalone="no"?>
<svg width="1600px" height="900px" viewBox="0 0 1600 900" version="1.1" xmlns="http://www.w3.org/2000/svg" xmlns:xlink="http://www.w3.org/1999/xlink" style="background: #000000;">
    <!-- Generator: Sketch 41.1 (35376) - http://www.bohemiancoding.com/sketch -->
    <title>Genesis</title>
    <desc>Created with Sketch.</desc>
    <defs>
        <linearGradient x1="50%" y1="0%" x2="50%" y2="100%" id="linearGradient-1">
            <stop stop-color="#898A92" offset="0%"></stop>
            <stop stop-color="#44444C" offset="100%"></stop>
        </linearGradient>
        <radialGradient cx="16.7196603%" cy="38.9680887%" fx="16.7196603%" fy="38.9680887%" r="57.1756102%" id="radialGradient-2">
            <stop stop-color="#FFFFFF" stop-opacity="0.5" offset="0%"></stop>
            <stop stop-color="#000000" stop-opacity="0" offset="100%"></stop>
        </radialGradient>
        <radialGradient cx="50%" cy="23.0845268%" fx="50%" fy="23.0845268%" r="68.1263255%" id="radialGradient-3">
            <stop stop-color="#FFFFFF" stop-opacity="0.279664855" offset="0%"></stop>
            <stop stop-color="#000000" stop-opacity="0" offset="100%"></stop>
        </radialGradient>
        <radialGradient cx="52.6448288%" cy="83.4537603%" fx="52.6448288%" fy="83.4537603%" r="37.423283%" id="radialGradient-4">
            <stop stop-color="#28292D" stop-opacity="0.396342844" offset="0%"></stop>
            <stop stop-color="#000000" stop-opacity="0" offset="100%"></stop>
        </radialGradient>
        <linearGradient x1="50%" y1="0%" x2="50%" y2="100%" id="linearGradient-5">
            <stop stop-color="#94959B" offset="0%"></stop>
            <stop stop-color="#3F3F47" offset="100%"></stop>
        </linearGradient>
        <path d="M1488.30224,219.72195 C1369.54212,90.0889917 1107.13252,0 802.5,0 C516.312544,0 267.389722,79.5097523 139.827418,196.620824 C55.0237169,259.066583 0,359.607553 0,473 C0,662.433669 153.566331,816 343,816 C428.830659,816 507.298065,784.474168 567.454376,732.370347 C641.415654,744.460615 720.425387,751 802.5,751 C883.019042,751 960.588282,744.70615 1033.3348,733.051801 C1093.38743,784.748921 1171.54417,816 1257,816 C1446.43367,816 1600,662.433669 1600,473 C1600,372.692635 1556.94265,282.441853 1488.30224,219.72195 Z" id="path-6"></path>
        <linearGradient x1="50%" y1="-30.6557623%" x2="50%" y2="100%" id="linearGradient-7">
            <stop stop-color="#7E7E90" offset="0%"></stop>
            <stop stop-color="#19191D" offset="100%"></stop>
        </linearGradient>
        <linearGradient x1="50%" y1="-33.0190808%" x2="38.3660698%" y2="118.918253%" id="linearGradient-8">
            <stop stop-color="#4B4C56" offset="0%"></stop>
            <stop stop-color="#9798A0" offset="100%"></stop>
        </linearGradient>
        <rect id="path-9" x="-2.27373675e-13" y="-2.27373675e-13" width="160.958793" height="43" rx="21.5"></rect>
        <mask id="mask-10" maskContentUnits="userSpaceOnUse" maskUnits="objectBoundingBox" x="-18" y="-18" width="196.958793" height="79">
            <rect x="-18" y="-18" width="196.958793" height="79" fill="white"></rect>
            <use xlink:href="#path-9" fill="black"></use>
        </mask>
        <linearGradient x1="51.4785696%" y1="10.1650943%" x2="50%" y2="100%" id="linearGradient-11">
            <stop stop-color="#CBCBCE" offset="0%"></stop>
            <stop stop-color="#65656D" offset="100%"></stop>
        </linearGradient>
        <linearGradient x1="53.4296698%" y1="11.828651%" x2="50%" y2="65.5410127%" id="linearGradient-12">
            <stop stop-color="#9798A0" offset="0%"></stop>
            <stop stop-color="#45454D" offset="100%"></stop>
        </linearGradient>
        <linearGradient x1="56.6655116%" y1="13.3592266%" x2="46.6095024%" y2="94.8450474%" id="linearGradient-13">
            <stop stop-color="#1D1D24" offset="0%"></stop>
            <stop stop-color="#797A82" offset="100%"></stop>
        </linearGradient>
        <path d="M533.744739,452.9 C536.279683,453.032779 538.831991,453.1 541.4,453.1 C620.929004,453.1 685.4,388.629004 685.4,309.1 C685.4,259.591879 660.415758,215.91914 622.367755,190.002266 C580.574729,156.991491 479.210061,133.7 360.8,133.7 C236.029858,133.7 130.185382,159.560768 93.0200276,195.40354 C59.1724851,221.752172 37.3999999,262.883468 37.3999999,309.1 C37.3999999,388.629004 101.870996,453.1 181.4,453.1 C183.968007,453.1 186.520314,453.032779 189.055257,452.9 L533.744739,452.9 Z" id="path-14"></path>
        <mask id="mask-15" maskContentUnits="userSpaceOnUse" maskUnits="objectBoundingBox" x="-6" y="-6" width="660" height="331.4">
            <rect x="31.3999999" y="127.7" width="660" height="331.4" fill="white"></rect>
            <use xlink:href="#path-14" fill="black"></use>
        </mask>
        <linearGradient x1="63.9254147%" y1="-31.057361%" x2="40.4126158%" y2="131.836389%" id="linearGradient-16">
            <stop stop-color="#C1C2C6" offset="0%"></stop>
            <stop stop-color="#505058" offset="100%"></stop>
        </linearGradient>
        <linearGradient x1="50%" y1="-70.2039409%" x2="50%" y2="43.5541051%" id="linearGradient-17">
            <stop stop-color="#686875" offset="0%"></stop>
            <stop stop-color="#36373E" offset="100%"></stop>
        </linearGradient>
        <linearGradient x1="50%" y1="147.744901%" x2="50%" y2="0%" id="linearGradient-18">
            <stop stop-color="#5E5E6A" offset="0%"></stop>
            <stop stop-color="#36373E" offset="100%"></stop>
        </linearGradient>
        <linearGradient x1="50%" y1="100%" x2="50%" y2="-34.5494052%" id="linearGradient-19">
            <stop stop-color="#36373E" offset="0%"></stop>
            <stop stop-color="#5C5D66" offset="100%"></stop>
        </linearGradient>
        <circle id="path-20" cx="86.6000001" cy="79.4999999" r="72"></circle>
        <mask id="mask-21" maskContentUnits="userSpaceOnUse" maskUnits="objectBoundingBox" x="0" y="0" width="144" height="144" fill="white">
            <use xlink:href="#path-20"></use>
        </mask>
        <path d="M54.666665,93.4705882 C54.4852797,93.7882353 54.666665,94 55.3015136,94 L67.1822502,94 C67.8170987,94 68.1798693,93.8411765 68.3612546,93.4705882 L71.8075752,87.1705882 L93.392425,87.1705882 L96.9294382,93.4705882 C97.1108235,93.8411765 97.473594,94 98.1084426,94 L109.898487,94 C110.533335,94 110.71472,93.7882353 110.533335,93.4705882 L89.6740265,58.5294118 C89.4926412,58.2117647 89.1298706,58 88.4950221,58 L77.0677486,58 C76.4329001,58 76.0701295,58.2117647 75.8887442,58.5294118 L54.666665,93.4705882 Z M75.5259737,80.5529412 L82.5093074,67.9529412 L82.7813854,67.9529412 L89.7647191,80.5529412 L75.5259737,80.5529412 Z" id="path-22"></path>
        <filter x="-50%" y="-50%" width="200%" height="200%" filterUnits="objectBoundingBox" id="filter-23">
            <feOffset dx="0" dy="3" in="SourceAlpha" result="shadowOffsetInner1"></feOffset>
            <feComposite in="shadowOffsetInner1" in2="SourceAlpha" operator="arithmetic" k2="-1" k3="1" result="shadowInnerInner1"></feComposite>
            <feColorMatrix values="0 0 0 0 0   0 0 0 0 0   0 0 0 0 0  0 0 0 0.5 0" type="matrix" in="shadowInnerInner1"></feColorMatrix>
        </filter>
        <circle id="path-24" cx="86.6000001" cy="79.4999999" r="72"></circle>
        <mask id="mask-25" maskContentUnits="userSpaceOnUse" maskUnits="objectBoundingBox" x="0" y="0" width="144" height="144" fill="white">
            <use xlink:href="#path-24"></use>
        </mask>
        <path d="M64.5,95.5705882 C64.5,95.8882353 64.8650794,96.1 65.4126984,96.1 L88.9603175,96.1 C102.376984,96.1 110.5,92.7117647 110.5,85.6176471 C110.5,81.3294118 106.301587,78.3647059 102.194444,77.4647059 L102.194444,77.3588235 C106.301587,76.0352941 109.404762,73.6 109.404762,69.6823529 C109.404762,63.9647059 103.107143,60.1 89.5992064,60.1 L65.4126984,60.1 C64.8650794,60.1 64.5,60.3117647 64.5,60.6294118 L64.5,95.5705882 Z M78.4642858,74.8176471 C78.0992064,74.8176471 77.9166667,74.7117647 77.9166667,74.5 L77.9166667,66.7176471 C77.9166667,66.5058824 78.0992064,66.4 78.4642858,66.4 L87.9563492,66.4 C93.0674604,66.4 96.0793651,67.9352941 96.0793651,70.5823529 C96.0793651,73.2294118 93.0674604,74.8176471 87.9563492,74.8176471 L78.4642858,74.8176471 Z M77.9166667,89.4823529 L77.9166667,81.1176471 C77.9166667,80.9058824 78.0992064,80.8 78.4642858,80.8 L88.686508,80.8 C94.1626984,80.8 97.0833334,82.5470588 97.0833334,85.3 C97.0833334,88.1058824 94.1626984,89.8 88.686508,89.8 L78.4642858,89.8 C78.0992064,89.8 77.9166667,89.6941176 77.9166667,89.4823529 Z" id="path-26"></path>
        <filter x="-50%" y="-50%" width="200%" height="200%" filterUnits="objectBoundingBox" id="filter-27">
            <feOffset dx="0" dy="3" in="SourceAlpha" result="shadowOffsetInner1"></feOffset>
            <feComposite in="shadowOffsetInner1" in2="SourceAlpha" operator="arithmetic" k2="-1" k3="1" result="shadowInnerInner1"></feComposite>
            <feColorMatrix values="0 0 0 0 0   0 0 0 0 0   0 0 0 0 0  0 0 0 0.5 0" type="matrix" in="shadowInnerInner1"></feColorMatrix>
        </filter>
        <circle id="path-28" cx="86.6000001" cy="79.4999999" r="72"></circle>
        <mask id="mask-29" maskContentUnits="userSpaceOnUse" maskUnits="objectBoundingBox" x="0" y="0" width="144" height="144" fill="white">
            <use xlink:href="#path-28"></use>
        </mask>
        <path d="M66.0289378,86.8920643 C69.2729715,92.584372 77.1127195,95.4561668 87.8360531,95.4561668 C98.1989384,95.4561668 105.76835,92.584372 109.192608,87.7125771 C109.462944,87.4561668 109.28272,87.1997566 108.742048,87.0971925 L98.9198348,84.584372 C98.3791625,84.4305258 97.9286023,84.5330899 97.6582661,84.8407822 C95.9461372,87.0971925 93.0625518,88.7895002 87.9261651,88.7895002 C83.1502266,88.7895002 80.0864171,87.3536027 78.7347364,84.9433463 C78.01384,83.661295 77.7435038,82.4305258 77.7435038,77.4561668 C77.7435038,72.4818079 78.01384,71.2510386 78.7347364,69.9689873 C80.0864171,67.5587309 83.1502266,66.1228335 87.9261651,66.1228335 C93.0625518,66.1228335 95.9461372,67.8151412 97.6582661,70.0715514 C97.9286023,70.3792438 98.3791625,70.4818079 98.9198348,70.3279617 L108.742048,67.8151412 C109.28272,67.7125771 109.462944,67.4561668 109.192608,67.1997566 C105.76835,62.3279617 98.1989384,59.4561668 87.8360531,59.4561668 C77.1127195,59.4561668 69.2729715,62.3279617 66.0289378,68.0202694 C64.6772571,70.2766797 64.3168089,72.0715514 64.3168089,77.4561668 C64.3168089,82.8407822 64.6772571,84.635654 66.0289378,86.8920643 Z" id="path-30"></path>
        <filter x="-50%" y="-50%" width="200%" height="200%" filterUnits="objectBoundingBox" id="filter-31">
            <feOffset dx="0" dy="3" in="SourceAlpha" result="shadowOffsetInner1"></feOffset>
            <feComposite in="shadowOffsetInner1" in2="SourceAlpha" operator="arithmetic" k2="-1" k3="1" result="shadowInnerInner1"></feComposite>
            <feColorMatrix values="0 0 0 0 0   0 0 0 0 0   0 0 0 0 0  0 0 0 0.5 0" type="matrix" in="shadowInnerInner1"></feColorMatrix>
        </filter>
        <linearGradient x1="50%" y1="-20.2990384%" x2="50%" y2="140.49006%" id="linearGradient-32">
            <stop stop-color="#ACADB5" offset="0%"></stop>
            <stop stop-color="#1D1D24" offset="100%"></stop>
        </linearGradient>
        <linearGradient x1="50%" y1="0%" x2="50%" y2="100%" id="linearGradient-33">
            <stop stop-color="#1D1D24" offset="0%"></stop>
            <stop stop-color="#93949C" offset="100%"></stop>
        </linearGradient>
        <ellipse id="path-34" cx="256.1" cy="256.1" rx="255.9" ry="255.9"></ellipse>
        <mask id="mask-35" maskContentUnits="userSpaceOnUse" maskUnits="objectBoundingBox" x="-6" y="-6" width="523.8" height="523.8">
            <rect x="-5.80000001" y="-5.80000001" width="523.8" height="523.8" fill="white"></rect>
            <use xlink:href="#path-34" fill="black"></use>
        </mask>
        <linearGradient x1="56.2443614%" y1="111.539353%" x2="56.2443614%" y2="-35.9193762%" id="linearGradient-36">
            <stop stop-color="#ACADB5" offset="0%"></stop>
            <stop stop-color="#1D1D24" offset="100%"></stop>
        </linearGradient>
        <linearGradient x1="50%" y1="-73.8570223%" x2="50%" y2="79.2759896%" id="linearGradient-37">
            <stop stop-color="#F4F4F4" offset="0%"></stop>
            <stop stop-color="#A7A8B0" offset="100%"></stop>
        </linearGradient>
        <circle id="path-38" cx="255.1" cy="257.1" r="198"></circle>
        <mask id="mask-39" maskContentUnits="userSpaceOnUse" maskUnits="objectBoundingBox" x="-3" y="-3" width="402" height="402">
            <rect x="54.1" y="56.1" width="402" height="402" fill="white"></rect>
            <use xlink:href="#path-38" fill="black"></use>
        </mask>
        <linearGradient x1="50%" y1="0%" x2="50%" y2="100%" id="linearGradient-40">
            <stop stop-color="#45454E" offset="0%"></stop>
            <stop stop-color="#34353C" offset="100%"></stop>
        </linearGradient>
        <circle id="path-41" cx="149.5" cy="149.5" r="149.5"></circle>
        <mask id="mask-42" maskContentUnits="userSpaceOnUse" maskUnits="objectBoundingBox" x="-10" y="-10" width="319" height="319">
            <rect x="-10" y="-10" width="319" height="319" fill="white"></rect>
            <use xlink:href="#path-41" fill="black"></use>
        </mask>
        <linearGradient x1="50%" y1="0%" x2="50%" y2="100%" id="linearGradient-43">
            <stop stop-color="#686875" offset="0%"></stop>
            <stop stop-color="#1D1D24" offset="100%"></stop>
        </linearGradient>
        <circle id="path-44" cx="149.5" cy="149.5" r="149.5"></circle>
        <mask id="mask-45" maskContentUnits="userSpaceOnUse" maskUnits="objectBoundingBox" x="-7" y="-7" width="313" height="313">
            <rect x="-7" y="-7" width="313" height="313" fill="white"></rect>
            <use xlink:href="#path-44" fill="black"></use>
        </mask>
        <circle id="path-46" cx="149.6" cy="149.5" r="149.5"></circle>
        <linearGradient x1="48.5510677%" y1="43.0390249%" x2="48.5510677%" y2="64.5625539%" id="linearGradient-48">
            <stop stop-color="#4C4C57" offset="0%"></stop>
            <stop stop-color="#2B2C32" offset="100%"></stop>
        </linearGradient>
        <circle id="path-49" cx="149.6" cy="149.5" r="149.5"></circle>
        <radialGradient cx="50%" cy="50%" fx="50%" fy="50%" r="55.3343037%" id="radialGradient-51">
            <stop stop-color="#383941" offset="0%"></stop>
            <stop stop-color="#686875" offset="100%"></stop>
        </radialGradient>
        <linearGradient x1="50%" y1="-56.4356276%" x2="50%" y2="76.2522065%" id="linearGradient-52">
            <stop stop-color="#A1A1AD" offset="0%"></stop>
            <stop stop-color="#3E3F47" offset="100%"></stop>
        </linearGradient>
        <path d="M180.2,117.5 L180.2,-14 L117.2,-14 L117.2,117.5 L-14.3,117.5 L-14.3,180.5 L117.2,180.5 L117.2,312 L180.2,312 L180.2,180.5 L311.7,180.5 L311.7,117.5 L180.2,117.5 Z" id="path-53"></path>
        <mask id="mask-54" maskContentUnits="userSpaceOnUse" maskUnits="objectBoundingBox" x="0" y="0" width="326" height="326" fill="white">
            <use xlink:href="#path-53"></use>
        </mask>
        <linearGradient x1="50%" y1="171.941078%" x2="50%" y2="20.4674321%" id="linearGradient-55">
            <stop stop-color="#575762" offset="0%"></stop>
            <stop stop-color="#36373E" offset="100%"></stop>
        </linearGradient>
        <linearGradient x1="50%" y1="0%" x2="50%" y2="100%" id="linearGradient-56">
            <stop stop-color="#222226" offset="0%"></stop>
            <stop stop-color="#666673" offset="100%"></stop>
        </linearGradient>
        <linearGradient x1="0%" y1="100%" x2="80.644806%" y2="50%" id="linearGradient-57">
            <stop stop-color="#686875" offset="0%"></stop>
            <stop stop-color="#1D1D24" offset="100%"></stop>
        </linearGradient>
        <linearGradient x1="100%" y1="92.8015889%" x2="12.1612002%" y2="78.9680652%" id="linearGradient-58">
            <stop stop-color="#686875" offset="0%"></stop>
            <stop stop-color="#1D1D24" offset="100%"></stop>
        </linearGradient>
        <linearGradient x1="-22.2005747%" y1="60.7123185%" x2="75.9803128%" y2="56.7384124%" id="linearGradient-59">
            <stop stop-color="#686875" offset="0%"></stop>
            <stop stop-color="#1D1D24" offset="100%"></stop>
        </linearGradient>
        <linearGradient x1="-20.800036%" y1="-38.5533378%" x2="75.3702196%" y2="88.9637105%" id="linearGradient-60">
            <stop stop-color="#686875" offset="0%"></stop>
            <stop stop-color="#1D1D24" offset="100%"></stop>
        </linearGradient>
    </defs>
    <g id="Page-1" stroke="none" stroke-width="1" fill="none" fill-rule="evenodd">
        <g id="Genesis">
            <g id="Controller" transform="translate(0.000000, 149.000000)">
                <g id="Background">
                    <use fill="url(#linearGradient-1)" xlink:href="#path-6"></use>
                    <use fill="url(#radialGradient-2)" xlink:href="#path-6"></use>
                    <use fill="url(#radialGradient-3)" xlink:href="#path-6"></use>
                    <use stroke="url(#linearGradient-5)" stroke-width="4" fill="url(#radialGradient-4)" xlink:href="#path-6"></use>
                </g>
                <path d="M1488.30224,219.72195 C1369.54212,90.0889917 1107.13252,0 802.5,0 C516.312544,0 267.389722,79.5097523 139.827418,196.620824 C55.0237169,259.066583 0,359.607553 0,473 C0,662.433669 153.566331,816 343,816 C428.830659,816 507.298065,784.474168 567.454376,732.370347 C641.415654,744.460615 720.425387,751 802.5,751 C883.019042,751 960.588282,744.70615 1033.3348,733.051801 C1093.38743,784.748921 1171.54417,816 1257,816 C1446.43367,816 1600,662.433669 1600,473 C1600,372.692635 1556.94265,282.441853 1488.30224,219.72195 Z" id="Noise" fill="url(#linearGradient-1)" opacity="0"></path>
                <ellipse id="Oval-8" fill="#000000" cx="799" cy="808" rx="311" ry="141"></ellipse>
            </g>
            <g id="Graphics" transform="translate(1051.000000, 288.000000)" fill="#FFFFFF" opacity="0.702250466">
                <path d="M8.66499996,40.53 C13.945,40.53 16.675,37.8 16.675,34.11 C16.675,30.42 14.455,28.5 10.255,27.93 L9.17499996,27.78 C6.83499996,27.45 5.99499996,26.7 5.99499996,25.53 C5.99499996,24.24 6.92499996,23.31 8.72499996,23.31 C10.405,23.31 11.905,23.85 13.465,24.87 C13.615,24.96 13.765,24.93 13.885,24.78 L15.715,22.05 C15.865,21.84 15.835,21.72 15.655,21.6 C13.945,20.28 11.425,19.47 8.72499996,19.47 C4.31499996,19.47 1.49499996,21.96 1.49499996,25.71 C1.49499996,29.31 3.80499996,31.26 7.94499996,31.83 L9.02499996,31.98 C11.455,32.31 12.175,33.06 12.175,34.26 C12.175,35.7 10.975,36.69 8.84499996,36.69 C6.68499996,36.69 4.85499996,35.67 3.50499996,34.59 C3.35499996,34.47 3.17499996,34.47 3.05499996,34.62 L0.774999963,37.23 C0.624999963,37.41 0.684999963,37.62 0.804999963,37.74 C2.39499996,39.27 5.48499996,40.53 8.66499996,40.53 Z M27.955,40.2 C28.135,40.2 28.255,40.08 28.255,39.9 L28.255,23.91 C28.255,23.79 28.315,23.73 28.435,23.73 L33.595,23.73 C33.775,23.73 33.895,23.61 33.895,23.43 L33.895,20.1 C33.895,19.92 33.775,19.8 33.595,19.8 L18.505,19.8 C18.325,19.8 18.205,19.92 18.205,20.1 L18.205,23.43 C18.205,23.61 18.325,23.73 18.505,23.73 L23.665,23.73 C23.785,23.73 23.845,23.79 23.845,23.91 L23.845,39.9 C23.845,40.08 23.965,40.2 24.145,40.2 L27.955,40.2 Z M34.825,39.9 C34.765,40.08 34.825,40.2 35.035,40.2 L38.965,40.2 C39.175,40.2 39.295,40.11 39.355,39.9 L40.495,36.33 L47.635,36.33 L48.805,39.9 C48.865,40.11 48.985,40.2 49.195,40.2 L53.095,40.2 C53.305,40.2 53.365,40.08 53.305,39.9 L46.405,20.1 C46.345,19.92 46.225,19.8 46.015,19.8 L42.235,19.8 C42.025,19.8 41.905,19.92 41.845,20.1 L34.825,39.9 Z M41.725,32.58 L44.035,25.44 L44.125,25.44 L46.435,32.58 L41.725,32.58 Z M71.215,40.2 C71.425,40.2 71.515,40.02 71.425,39.84 L67.405,31.8 C69.655,30.81 71.035,28.74 71.035,26.13 C71.035,22.41 68.275,19.8 64.105,19.8 L55.975,19.8 C55.795,19.8 55.675,19.92 55.675,20.1 L55.675,39.9 C55.675,40.08 55.795,40.2 55.975,40.2 L59.785,40.2 C59.965,40.2 60.085,40.08 60.085,39.9 L60.085,32.61 C60.085,32.49 60.145,32.43 60.265,32.43 L62.995,32.43 L66.505,39.9 C66.595,40.11 66.685,40.2 66.955,40.2 L71.215,40.2 Z M63.865,28.68 L60.265,28.68 C60.145,28.68 60.085,28.62 60.085,28.5 L60.085,23.79 C60.085,23.67 60.145,23.61 60.265,23.61 L63.865,23.61 C65.545,23.61 66.625,24.6 66.625,26.13 C66.625,27.69 65.545,28.68 63.865,28.68 Z M82.705,40.2 C82.885,40.2 83.005,40.08 83.005,39.9 L83.005,23.91 C83.005,23.79 83.065,23.73 83.185,23.73 L88.345,23.73 C88.525,23.73 88.645,23.61 88.645,23.43 L88.645,20.1 C88.645,19.92 88.525,19.8 88.345,19.8 L73.255,19.8 C73.075,19.8 72.955,19.92 72.955,20.1 L72.955,23.43 C72.955,23.61 73.075,23.73 73.255,23.73 L78.415,23.73 C78.535,23.73 78.595,23.79 78.595,23.91 L78.595,39.9 C78.595,40.08 78.715,40.2 78.895,40.2 L82.705,40.2 Z" id="START" transform="translate(44.665509, 30.000000) rotate(-27.500000) translate(-44.665509, -30.000000) "></path>
                <path d="M227.562749,475.034926 C227.742749,475.034926 227.862749,474.914926 227.862749,474.734926 L227.862749,458.744926 C227.862749,458.624926 227.922749,458.564926 228.042749,458.564926 L233.202749,458.564926 C233.382749,458.564926 233.502749,458.444926 233.502749,458.264926 L233.502749,454.934926 C233.502749,454.754926 233.382749,454.634926 233.202749,454.634926 L218.112749,454.634926 C217.932749,454.634926 217.812749,454.754926 217.812749,454.934926 L217.812749,458.264926 C217.812749,458.444926 217.932749,458.564926 218.112749,458.564926 L223.272749,458.564926 C223.392749,458.564926 223.452749,458.624926 223.452749,458.744926 L223.452749,474.734926 C223.452749,474.914926 223.572749,475.034926 223.752749,475.034926 L227.562749,475.034926 Z M251.502749,475.034926 C251.712749,475.034926 251.802749,474.854926 251.712749,474.674926 L247.692749,466.634926 C249.942749,465.644926 251.322749,463.574926 251.322749,460.964926 C251.322749,457.244926 248.562749,454.634926 244.392749,454.634926 L236.262749,454.634926 C236.082749,454.634926 235.962749,454.754926 235.962749,454.934926 L235.962749,474.734926 C235.962749,474.914926 236.082749,475.034926 236.262749,475.034926 L240.072749,475.034926 C240.252749,475.034926 240.372749,474.914926 240.372749,474.734926 L240.372749,467.444926 C240.372749,467.324926 240.432749,467.264926 240.552749,467.264926 L243.282749,467.264926 L246.792749,474.734926 C246.882749,474.944926 246.972749,475.034926 247.242749,475.034926 L251.502749,475.034926 Z M244.152749,463.514926 L240.552749,463.514926 C240.432749,463.514926 240.372749,463.454926 240.372749,463.334926 L240.372749,458.624926 C240.372749,458.504926 240.432749,458.444926 240.552749,458.444926 L244.152749,458.444926 C245.832749,458.444926 246.912749,459.434926 246.912749,460.964926 C246.912749,462.524926 245.832749,463.514926 244.152749,463.514926 Z M254.682749,474.734926 C254.682749,474.914926 254.802749,475.034926 254.982749,475.034926 L258.792749,475.034926 C258.972749,475.034926 259.092749,474.914926 259.092749,474.734926 L259.092749,454.934926 C259.092749,454.754926 258.972749,454.634926 258.792749,454.634926 L254.982749,454.634926 C254.802749,454.634926 254.682749,454.754926 254.682749,454.934926 L254.682749,474.734926 Z M263.022749,470.414926 C264.072749,473.714926 266.892749,475.364926 270.522749,475.364926 C274.122749,475.364926 276.942749,473.534926 277.962749,470.264926 C278.322749,469.154926 278.472749,467.474926 278.472749,465.674926 L278.472749,463.994926 C278.472749,463.814926 278.352749,463.694926 278.172749,463.694926 L271.152749,463.694926 C270.972749,463.694926 270.852749,463.814926 270.852749,463.994926 L270.852749,466.874926 C270.852749,467.054926 270.972749,467.174926 271.152749,467.174926 L273.912749,467.174926 C274.032749,467.174926 274.092749,467.234926 274.092749,467.354926 C274.092749,468.224926 274.002749,468.854926 273.852749,469.364926 C273.432749,470.714926 272.112749,471.464926 270.582749,471.464926 C268.812749,471.464926 267.702749,470.624926 267.252749,469.214926 C267.012749,468.494926 266.922749,467.504926 266.922749,464.834926 C266.922749,462.164926 267.012749,461.204926 267.252749,460.484926 C267.702749,459.074926 268.782749,458.204926 270.522749,458.204926 C272.202749,458.204926 273.222749,458.924926 274.032749,460.304926 C274.092749,460.454926 274.242749,460.514926 274.452749,460.454926 L277.662749,459.104926 C277.842749,459.014926 277.872749,458.834926 277.782749,458.654926 C276.822749,456.194926 274.332749,454.304926 270.522749,454.304926 C266.892749,454.304926 264.072749,455.954926 263.022749,459.254926 C262.572749,460.664926 262.452749,461.804926 262.452749,464.834926 C262.452749,467.864926 262.572749,469.004926 263.022749,470.414926 Z M281.862749,470.414926 C282.912749,473.714926 285.732749,475.364926 289.362749,475.364926 C292.962749,475.364926 295.782749,473.534926 296.802749,470.264926 C297.162749,469.154926 297.312749,467.474926 297.312749,465.674926 L297.312749,463.994926 C297.312749,463.814926 297.192749,463.694926 297.012749,463.694926 L289.992749,463.694926 C289.812749,463.694926 289.692749,463.814926 289.692749,463.994926 L289.692749,466.874926 C289.692749,467.054926 289.812749,467.174926 289.992749,467.174926 L292.752749,467.174926 C292.872749,467.174926 292.932749,467.234926 292.932749,467.354926 C292.932749,468.224926 292.842749,468.854926 292.692749,469.364926 C292.272749,470.714926 290.952749,471.464926 289.422749,471.464926 C287.652749,471.464926 286.542749,470.624926 286.092749,469.214926 C285.852749,468.494926 285.762749,467.504926 285.762749,464.834926 C285.762749,462.164926 285.852749,461.204926 286.092749,460.484926 C286.542749,459.074926 287.622749,458.204926 289.362749,458.204926 C291.042749,458.204926 292.062749,458.924926 292.872749,460.304926 C292.932749,460.454926 293.082749,460.514926 293.292749,460.454926 L296.502749,459.104926 C296.682749,459.014926 296.712749,458.834926 296.622749,458.654926 C295.662749,456.194926 293.172749,454.304926 289.362749,454.304926 C285.732749,454.304926 282.912749,455.954926 281.862749,459.254926 C281.412749,460.664926 281.292749,461.804926 281.292749,464.834926 C281.292749,467.864926 281.412749,469.004926 281.862749,470.414926 Z M300.672749,474.734926 C300.672749,474.914926 300.792749,475.034926 300.972749,475.034926 L314.052749,475.034926 C314.232749,475.034926 314.352749,474.914926 314.352749,474.734926 L314.352749,471.524926 C314.352749,471.344926 314.232749,471.224926 314.052749,471.224926 L305.262749,471.224926 C305.142749,471.224926 305.082749,471.164926 305.082749,471.044926 L305.082749,466.814926 C305.082749,466.694926 305.142749,466.634926 305.262749,466.634926 L312.582749,466.634926 C312.762749,466.634926 312.882749,466.514926 312.882749,466.334926 L312.882749,463.154926 C312.882749,462.974926 312.762749,462.854926 312.582749,462.854926 L305.262749,462.854926 C305.142749,462.854926 305.082749,462.794926 305.082749,462.674926 L305.082749,458.624926 C305.082749,458.504926 305.142749,458.444926 305.262749,458.444926 L314.052749,458.444926 C314.232749,458.444926 314.352749,458.324926 314.352749,458.144926 L314.352749,454.934926 C314.352749,454.754926 314.232749,454.634926 314.052749,454.634926 L300.972749,454.634926 C300.792749,454.634926 300.672749,454.754926 300.672749,454.934926 L300.672749,474.734926 Z M333.162749,475.034926 C333.372749,475.034926 333.462749,474.854926 333.372749,474.674926 L329.352749,466.634926 C331.602749,465.644926 332.982749,463.574926 332.982749,460.964926 C332.982749,457.244926 330.222749,454.634926 326.052749,454.634926 L317.922749,454.634926 C317.742749,454.634926 317.622749,454.754926 317.622749,454.934926 L317.622749,474.734926 C317.622749,474.914926 317.742749,475.034926 317.922749,475.034926 L321.732749,475.034926 C321.912749,475.034926 322.032749,474.914926 322.032749,474.734926 L322.032749,467.444926 C322.032749,467.324926 322.092749,467.264926 322.212749,467.264926 L324.942749,467.264926 L328.452749,474.734926 C328.542749,474.944926 328.632749,475.034926 328.902749,475.034926 L333.162749,475.034926 Z M325.812749,463.514926 L322.212749,463.514926 C322.092749,463.514926 322.032749,463.454926 322.032749,463.334926 L322.032749,458.624926 C322.032749,458.504926 322.092749,458.444926 322.212749,458.444926 L325.812749,458.444926 C327.492749,458.444926 328.572749,459.434926 328.572749,460.964926 C328.572749,462.524926 327.492749,463.514926 325.812749,463.514926 Z" id="TRIGGER" transform="translate(275.610125, 464.834926) rotate(-28.000000) translate(-275.610125, -464.834926) "></path>
            </g>
            <g data-button="START" id="Start-Button" transform="translate(1126.144069, 375.606388) rotate(-27.500000) translate(-1126.144069, -375.606388) translate(1045.644069, 354.106388)">
                <g id="Rectangle">
                    <use fill="url(#linearGradient-7)" fill-rule="evenodd" xlink:href="#path-9"></use>
                    <use stroke="url(#linearGradient-8)" mask="url(#mask-10)" stroke-width="36" xlink:href="#path-9"></use>
                    <use stroke="#1E1E24" stroke-width="3.96" xlink:href="#path-9"></use>
                </g>
                <rect id="Rectangle" fill="url(#linearGradient-11)" x="4.05778469" y="3" width="152.843223" height="37" rx="18.5"></rect>
            </g>
            <g id="Button-Shroud" transform="translate(866.000000, 289.000000)">
                <g id="Combined-Shape" transform="translate(361.400000, 293.400000) rotate(-28.000000) translate(-361.400000, -293.400000) ">
                    <use fill="url(#linearGradient-12)" fill-rule="evenodd" xlink:href="#path-14"></use>
                    <use stroke="url(#linearGradient-13)" mask="url(#mask-15)" stroke-width="12" xlink:href="#path-14"></use>
                </g>
                <rect id="Rectangle-7" fill="url(#linearGradient-16)" transform="translate(374.963865, 314.058005) rotate(-28.000000) translate(-374.963865, -314.058005) " x="81.7917062" y="217.133158" width="586.344317" height="193.849694" rx="96.9248471"></rect>
                <g id="Graphics" transform="translate(117.000000, 87.000000)" fill="#FFFFFF" opacity="0.702250466">
                    <path d="M183.98104,124.030524 C183.98104,124.272819 184.26104,124.434348 184.68104,124.434348 L202.74104,124.434348 C213.03104,124.434348 219.26104,121.849877 219.26104,116.438642 C219.26104,113.167672 216.04104,110.90626 212.89104,110.21976 L212.89104,110.138996 C216.04104,109.129437 218.42104,107.271849 218.42104,104.283555 C218.42104,99.9222606 213.59104,96.9743489 203.23104,96.9743489 L184.68104,96.9743489 C184.26104,96.9743489 183.98104,97.1358783 183.98104,97.3781724 L183.98104,124.030524 Z M194.69104,108.200643 C194.41104,108.200643 194.27104,108.119878 194.27104,107.958349 L194.27104,102.022143 C194.27104,101.860613 194.41104,101.779849 194.69104,101.779849 L201.97104,101.779849 C205.89104,101.779849 208.20104,102.950937 208.20104,104.970055 C208.20104,106.989172 205.89104,108.200643 201.97104,108.200643 L194.69104,108.200643 Z M194.27104,119.386554 L194.27104,113.006142 C194.27104,112.844613 194.41104,112.763848 194.69104,112.763848 L202.53104,112.763848 C206.73104,112.763848 208.97104,114.096466 208.97104,116.196348 C208.97104,118.336613 206.73104,119.628848 202.53104,119.628848 L194.69104,119.628848 C194.41104,119.628848 194.27104,119.548083 194.27104,119.386554 Z" id="B" transform="translate(201.621040, 110.704348) rotate(-28.000000) translate(-201.621040, -110.704348) "></path>
                    <path d="M3.96762605,217.995009 C3.82762605,218.237304 3.96762605,218.398833 4.45762605,218.398833 L13.6276261,218.398833 C14.1176261,218.398833 14.3976261,218.277686 14.5376261,217.995009 L17.1976261,213.18951 L33.8576261,213.18951 L36.5876261,217.995009 C36.7276261,218.277686 37.0076261,218.398833 37.4976261,218.398833 L46.5976261,218.398833 C47.0876261,218.398833 47.2276261,218.237304 47.0876261,217.995009 L30.9876261,191.342657 C30.8476261,191.100363 30.5676261,190.938834 30.0776261,190.938834 L21.2576261,190.938834 C20.7676261,190.938834 20.4876261,191.100363 20.3476261,191.342657 L3.96762605,217.995009 Z M20.0676261,208.141716 L25.4576261,198.530716 L25.6676261,198.530716 L31.0576261,208.141716 L20.0676261,208.141716 Z" id="A" transform="translate(25.527626, 204.668833) rotate(-28.000000) translate(-25.527626, -204.668833) "></path>
                    <path d="M362.730163,28.3264642 C365.250163,32.6685568 371.340163,34.8591621 379.670163,34.8591621 C387.720163,34.8591621 393.600163,32.6685568 396.260163,28.9523515 C396.470163,28.7567617 396.330163,28.5611719 395.910163,28.482936 L388.280163,26.5661564 C387.860163,26.4488026 387.510163,26.5270385 387.300163,26.7617462 C385.970163,28.482936 383.730163,29.7738284 379.740163,29.7738284 C376.030163,29.7738284 373.650163,28.6785258 372.600163,26.8399821 C372.040163,25.8620333 371.830163,24.9232025 371.830163,21.1287612 C371.830163,17.3343199 372.040163,16.3954891 372.600163,15.4175403 C373.650163,13.5789966 376.030163,12.4836939 379.740163,12.4836939 C383.730163,12.4836939 385.970163,13.7745863 387.300163,15.4957762 C387.510163,15.7304839 387.860163,15.8087198 388.280163,15.6913659 L395.910163,13.7745863 C396.330163,13.6963504 396.470163,13.5007607 396.260163,13.3051709 C393.600163,9.58896554 387.720163,7.39836026 379.670163,7.39836026 C371.340163,7.39836026 365.250163,9.58896554 362.730163,13.9310581 C361.680163,15.652248 361.400163,17.0213763 361.400163,21.1287612 C361.400163,25.2361461 361.680163,26.6052744 362.730163,28.3264642 Z" id="C" transform="translate(378.878403, 21.128761) rotate(-28.000000) translate(-378.878403, -21.128761) "></path>
                </g>
            </g>
            <g id="Buttons" transform="translate(985.000000, 425.000000)">
                <g data-button="A" id="A-Button" transform="translate(-0.000000, 186.100000)">
                    <circle id="Oval" stroke="#1E1E22" stroke-width="4.8" fill="url(#linearGradient-17)" cx="83" cy="83" r="83"></circle>
                    <use id="Oval" stroke="url(#linearGradient-19)" mask="url(#mask-21)" stroke-width="4.8" fill="url(#linearGradient-18)" xlink:href="#path-20"></use>
                    <g id="A" opacity="0.702250466" transform="translate(82.600000, 76.000000) rotate(-28.000000) translate(-82.600000, -76.000000) ">
                        <use fill="#36373E" fill-rule="evenodd" xlink:href="#path-22"></use>
                        <use fill="black" fill-opacity="1" filter="url(#filter-23)" xlink:href="#path-22"></use>
                    </g>
                </g>
                <g data-button="B" id="B-Button" transform="translate(176.000000, 93.000000)">
                    <circle id="Oval" stroke="#1E1E22" stroke-width="4.8" fill="url(#linearGradient-17)" cx="83" cy="83" r="83"></circle>
                    <use id="Oval" stroke="url(#linearGradient-19)" mask="url(#mask-25)" stroke-width="4.8" fill="url(#linearGradient-18)" xlink:href="#path-24"></use>
                    <g id="B" opacity="0.702250466" transform="translate(87.500000, 78.100000) rotate(-28.000000) translate(-87.500000, -78.100000) ">
                        <use fill="#36373E" fill-rule="evenodd" xlink:href="#path-26"></use>
                        <use fill="black" fill-opacity="1" filter="url(#filter-27)" xlink:href="#path-26"></use>
                    </g>
                </g>
                <g data-button="C" id="C-Button" transform="translate(352.000000, -0.000000)">
                    <circle id="Oval" stroke="#1E1E22" stroke-width="4.8" fill="url(#linearGradient-17)" cx="83" cy="83" r="83"></circle>
                    <use id="Oval" stroke="url(#linearGradient-19)" mask="url(#mask-29)" stroke-width="4.8" fill="url(#linearGradient-18)" xlink:href="#path-28"></use>
                    <g id="C" opacity="0.702250466" transform="translate(86.816809, 77.456167) rotate(-28.000000) translate(-86.816809, -77.456167) ">
                        <use fill="#36373E" fill-rule="evenodd" xlink:href="#path-30"></use>
                        <use fill="black" fill-opacity="1" filter="url(#filter-31)" xlink:href="#path-30"></use>
                    </g>
                </g>
            </g>
            <g id="Thumbpad-Shroud" transform="translate(102.000000, 344.000000)">
                <g id="Oval-3">
                    <use fill="url(#linearGradient-32)" fill-rule="evenodd" xlink:href="#path-34"></use>
                    <use stroke="url(#linearGradient-33)" mask="url(#mask-35)" stroke-width="12" xlink:href="#path-34"></use>
                </g>
                <g id="Oval-3">
                    <use fill="url(#linearGradient-36)" fill-rule="evenodd" xlink:href="#path-38"></use>
                    <use stroke="url(#linearGradient-37)" mask="url(#mask-39)" stroke-width="6" xlink:href="#path-38"></use>
                </g>
                <g id="Graphics" transform="translate(11.000000, 11.000000)" fill="#FFFFFF">
                    <polygon data-button="UP" id="Triangle" points="244.240596 1.13686838e-13 258.481192 30.4454117 230 30.4454117"></polygon>
                    <polygon data-button="DOWN" id="Triangle" opacity="0.499242071" transform="translate(244.240596, 475.922706) scale(1, -1) translate(-244.240596, -475.922706) " points="244.240596 460.7 258.481192 491.145412 230 491.145412"></polygon>
                    <polygon data-button="RIGHT" id="Triangle" opacity="0.750641325" transform="translate(474.222706, 246.240596) rotate(90.000000) translate(-474.222706, -246.240596) " points="474.222706 231.01789 488.463302 261.463302 459.98211 261.463302"></polygon>
                    <polygon data-button="LEFT" id="Triangle" opacity="0.750641325" transform="translate(15.622706, 246.240596) scale(-1, 1) rotate(90.000000) translate(-15.622706, -246.240596) " points="15.6227058 231.01789 29.8633016 261.463302 1.38211004 261.463302"></polygon>
                    <circle id="Oval-5" opacity="0.9" cx="408.7" cy="84.8" r="7.5"></circle>
                    <circle id="Oval-5" opacity="0.9" cx="81.9000001" cy="84.5" r="7.5"></circle>
                    <circle id="Oval-5" opacity="0.65" cx="408.7" cy="403.7" r="7.5"></circle>
                    <circle id="Oval-5" opacity="0.65" cx="81.9000001" cy="403.4" r="7.5"></circle>
                </g>
            </g>
            <g id="Thumbpad" transform="translate(208.000000, 451.000000)">
                <g id="Outline">
                    <use fill="url(#linearGradient-40)" fill-rule="evenodd" xlink:href="#path-41"></use>
                    <use stroke="#1E1E25" mask="url(#mask-42)" stroke-width="20" xlink:href="#path-41"></use>
                </g>
                <g id="CIrcle">
                    <use fill="url(#linearGradient-40)" fill-rule="evenodd" xlink:href="#path-44"></use>
                    <use stroke="url(#linearGradient-43)" mask="url(#mask-45)" stroke-width="14" xlink:href="#path-44"></use>
                </g>
                <g id="Bottom-T" transform="translate(1.000000, 0.000000)">
                    <mask id="mask-47" fill="white">
                        <use xlink:href="#path-46"></use>
                    </mask>
                    <g id="Mask"></g>
                    <path d="M187.8,110.2 L187.8,-13.3 L108.8,-13.3 L108.8,110.2 L-14.3,110.2 L-14.3,189.2 L108.8,189.2 L108.8,312.7 L187.8,312.7 L187.8,189.2 L311.7,189.2 L311.7,110.2 L187.8,110.2 Z" id="Combined-Shape" fill="url(#linearGradient-48)" mask="url(#mask-47)"></path>
                </g>
                <g id="Top-T" transform="translate(1.000000, 0.000000)">
                    <mask id="mask-50" fill="white">
                        <use xlink:href="#path-49"></use>
                    </mask>
                    <g id="Mask"></g>
                    <g id="Combined-Shape" mask="url(#mask-50)" stroke-width="4" stroke="url(#linearGradient-52)" fill="url(#radialGradient-51)">
                        <use mask="url(#mask-54)" xlink:href="#path-53"></use>
                    </g>
                </g>
                <ellipse id="Inner-Oval" stroke="url(#linearGradient-56)" stroke-width="2" fill="url(#linearGradient-55)" cx="149.5" cy="149.5" rx="26.5" ry="26.5"></ellipse>
                <g id="Directional-Triangles" transform="translate(46.000000, 48.000000)" stroke-width="2">
                    <polygon data-button="UP" id="Triangle" stroke="url(#linearGradient-57)" fill="#34353C" transform="translate(21.070992, 18.070992) rotate(-45.000000) translate(-21.070992, -18.070992) " points="21.0709921 4.86693369 33.4231759 31.2750506 8.71880842 31.2750506"></polygon>
                    <polygon data-button="DOWN" id="Triangle" stroke="url(#linearGradient-58)" fill="#34353C" transform="translate(187.870992, 18.070992) rotate(45.000000) translate(-187.870992, -18.070992) " points="187.870992 4.86693369 200.223176 31.2750506 175.518808 31.2750506"></polygon>
                    <polygon data-button="LEFT"  id="Triangle" stroke="url(#linearGradient-59)" fill="#2E2E36" transform="translate(18.870992, 185.162074) rotate(-135.000000) translate(-18.870992, -185.162074) " points="18.8709921 171.958016 31.2231758 198.366133 6.51880839 198.366133"></polygon>
                    <polygon data-button="RIGHT" id="Triangle" stroke="url(#linearGradient-60)" fill="#2E2E36" transform="translate(188.070992, 185.070992) rotate(135.000000) translate(-188.070992, -185.070992) " points="188.070992 171.866934 200.423176 198.275051 175.718808 198.275051"></polygon>
                </g>
            </g>
        </g>
    </g>
</svg>