<?xml version="1.0" encoding="UTF-8" standalone="no"?>
<svg width="1928px" height="1007px" viewBox="0 0 1928 1007" version="1.1" xmlns="http://www.w3.org/2000/svg" xmlns:xlink="http://www.w3.org/1999/xlink">
    <!-- Generator: Sketch 41.1 (35376) - http://www.bohemiancoding.com/sketch -->
    <title>Android Phone</title>
    <desc>Created with Sketch.</desc>
    <defs>
        <linearGradient x1="0%" y1="30.2002758%" x2="108.146009%" y2="30.2002758%" id="linearGradient-1">
            <stop stop-color="#000000" offset="0%"></stop>
            <stop stop-color="#000000" offset="3.97381093%"></stop>
            <stop stop-color="#181818" offset="88.5193948%"></stop>
            <stop stop-color="#646464" offset="100%"></stop>
        </linearGradient>
        <path d="M0,1775.68736 L0,169.497653 C0,87.843191 53.3611966,15.6862841 166.398856,9.41177047 C279.436516,3.13725682 389.059161,0 500.389314,0 C610.933835,0 718.999574,4.70588523 832.022877,9.41177047 C952.909916,15.6862841 998.43609,87.843191 998.43609,171.323634 L998.43609,1775.68736 C984.307278,1874.51095 894.824798,1912.15803 832.022877,1916.86392 C756.676408,1923.13843 691.514619,1926.27569 500.389314,1926.27569 C309.264009,1926.27569 240.189814,1921.5698 166.398853,1916.86392 C92.6078913,1912.15803 10.9890765,1866.66781 0,1775.68736 Z" id="path-2"></path>
        <mask id="mask-3" maskContentUnits="userSpaceOnUse" maskUnits="objectBoundingBox" x="0" y="0" width="998.43609" height="1926.27569" fill="white">
            <use xlink:href="#path-2"></use>
        </mask>
        <linearGradient x1="1.46360759%" y1="88.6047363%" x2="35.7156102%" y2="91.8913189%" id="linearGradient-4">
            <stop stop-color="#000000" offset="0%"></stop>
            <stop stop-color="#525252" stop-opacity="0" offset="100%"></stop>
        </linearGradient>
        <linearGradient x1="104.291312%" y1="39.5613821%" x2="87.946252%" y2="39.5613819%" id="linearGradient-5">
            <stop stop-color="#717171" offset="0%"></stop>
            <stop stop-color="#939393" offset="49.5214274%"></stop>
            <stop stop-color="#000000" stop-opacity="0" offset="100%"></stop>
        </linearGradient>
        <linearGradient x1="92.9137411%" y1="85.2230674%" x2="95.5708564%" y2="97.4320261%" id="linearGradient-6">
            <stop stop-color="#000000" stop-opacity="0" offset="0%"></stop>
            <stop stop-color="#000000" stop-opacity="0.5" offset="100%"></stop>
        </linearGradient>
        <path d="M2.52130326,974.650308 L2.52130326,177.808021 C2.52130326,97.0085801 55.6129989,25.6072429 168.079761,19.3984309 C280.546524,13.189619 389.615519,10.085213 500.383398,10.085213 C610.369614,10.085213 717.889567,14.741822 830.342044,19.3984309 C950.618543,25.6072429 995.914787,97.0085801 995.914787,179.614883 L995.914787,1767.17899 C981.857332,1864.96778 892.826784,1902.22065 830.342044,1906.87726 C755.376113,1913.08607 690.543424,1916.19048 500.383398,1916.19048 C500.026966,1916.19048 499.670961,1916.19046 499.315382,1916.19043 C498.881745,1916.19046 498.447515,1916.19048 498.012626,1916.19048 C308.758125,1916.19048 240.360053,1911.54542 167.291384,1906.90037 C94.2227152,1902.25531 13.4028147,1857.35312 2.52130326,1767.54875 L2.52130326,974.650308 Z M2.52130326,974.650308 L2.52130326,1767.17899 C13.4548793,1857.20676 94.6614779,1902.22065 168.079758,1906.87726 C241.360424,1911.52514 309.965722,1916.17302 499.315382,1916.19043 C687.563721,1916.17623 751.962535,1913.07954 826.400041,1906.90037 C888.587234,1902.25531 977.193827,1865.09488 991.184342,1767.54875 L991.184342,183.924003 C991.184342,101.522679 946.103794,30.2985164 826.400041,24.1051109 C714.483051,19.4600569 607.475098,14.8150028 498.012626,14.8150028 C387.772214,14.8150028 279.222594,17.9117055 167.291388,24.1051109 C55.3601813,30.2985164 2.52130326,101.522679 2.52130326,182.121625 L2.52130326,974.650308 Z" id="path-7"></path>
        <linearGradient x1="50%" y1="0%" x2="50%" y2="100%" id="linearGradient-8">
            <stop stop-color="#290760" offset="0%"></stop>
            <stop stop-color="#22005F" offset="100%"></stop>
        </linearGradient>
        <linearGradient x1="87.5394099%" y1="55.1366985%" x2="0%" y2="55.1366985%" id="linearGradient-9">
            <stop stop-color="#2B2B2B" offset="0%"></stop>
            <stop stop-color="#1C1C1C" offset="100%"></stop>
        </linearGradient>
        <ellipse id="path-10" cx="12.6491228" cy="12.6491228" rx="12.6065163" ry="12.6065163"></ellipse>
        <mask id="mask-11" maskContentUnits="userSpaceOnUse" maskUnits="objectBoundingBox" x="-4" y="-4" width="33.2130326" height="33.2130326">
            <rect x="-3.95739348" y="-3.95739348" width="33.2130326" height="33.2130326" fill="white"></rect>
            <use xlink:href="#path-10" fill="black"></use>
        </mask>
        <linearGradient x1="24.0234375%" y1="22.2935268%" x2="80.5385045%" y2="76.9670759%" id="linearGradient-12">
            <stop stop-color="#3E1A71" offset="0%"></stop>
            <stop stop-color="#2D0C61" offset="100%"></stop>
        </linearGradient>
        <ellipse id="path-13" cx="9.04726101" cy="9.04726101" rx="4.68242034" ry="4.68242034"></ellipse>
        <filter x="-50%" y="-50%" width="200%" height="200%" filterUnits="objectBoundingBox" id="filter-14">
            <feGaussianBlur stdDeviation="1" in="SourceAlpha" result="shadowBlurInner1"></feGaussianBlur>
            <feOffset dx="2" dy="2" in="shadowBlurInner1" result="shadowOffsetInner1"></feOffset>
            <feComposite in="shadowOffsetInner1" in2="SourceAlpha" operator="arithmetic" k2="-1" k3="1" result="shadowInnerInner1"></feComposite>
            <feColorMatrix values="0 0 0 0 0.250980392   0 0 0 0 0.129411765   0 0 0 0 0.431372549  0 0 0 1 0" type="matrix" in="shadowInnerInner1"></feColorMatrix>
        </filter>
        <ellipse id="path-15" cx="18.5921948" cy="18.5921948" rx="2.34121017" ry="2.34121017"></ellipse>
        <filter x="-50%" y="-50%" width="200%" height="200%" filterUnits="objectBoundingBox" id="filter-16">
            <feGaussianBlur stdDeviation="1" in="SourceAlpha" result="shadowBlurInner1"></feGaussianBlur>
            <feOffset dx="-2" dy="-2" in="shadowBlurInner1" result="shadowOffsetInner1"></feOffset>
            <feComposite in="shadowOffsetInner1" in2="SourceAlpha" operator="arithmetic" k2="-1" k3="1" result="shadowInnerInner1"></feComposite>
            <feColorMatrix values="0 0 0 0 0.250980392   0 0 0 0 0.129411765   0 0 0 0 0.431372549  0 0 0 1 0" type="matrix" in="shadowInnerInner1"></feColorMatrix>
        </filter>
        <linearGradient x1="100%" y1="100%" x2="0%" y2="100%" id="linearGradient-17">
            <stop stop-color="#1C1C1C" offset="0%"></stop>
            <stop stop-color="#0F0F0F" offset="100%"></stop>
        </linearGradient>
        <linearGradient x1="76.3834635%" y1="42.1774477%" x2="0%" y2="42.1774477%" id="linearGradient-18">
            <stop stop-color="#505050" offset="0%"></stop>
            <stop stop-color="#24272B" offset="100%"></stop>
        </linearGradient>
        <linearGradient x1="100%" y1="100%" x2="0%" y2="100%" id="linearGradient-19">
            <stop stop-color="#1C1C1C" offset="0%"></stop>
            <stop stop-color="#0F0F0F" offset="100%"></stop>
        </linearGradient>
    </defs>
    <g id="Page-1" stroke="none" stroke-width="1" fill="none" fill-rule="evenodd">
        <g id="Android-Phone">
            <g id="Phone" transform="translate(964.400000, 503.500000) rotate(-90.000000) translate(-964.400000, -503.500000) translate(460.900000, -460.000000)">
                <g id="body">
                    <use id="Rectangle-28" stroke="#000000" mask="url(#mask-3)" stroke-width="8" fill="url(#linearGradient-1)" xlink:href="#path-2"></use>
                    <path d="M342.466698,1909.63645 C384.677001,1910.57753 436.35421,1911.14787 502.904702,1911.14787 C693.064727,1911.14787 757.897416,1908.04346 832.863348,1901.83465 C895.348087,1897.17804 984.378635,1859.92517 998.43609,1762.13638 L998.43609,174.572276 C998.43609,91.9659736 953.139846,20.5646363 832.863348,14.3558244 C720.41087,9.69921547 612.890917,5.04260652 502.904702,5.04260652 C392.136823,5.04260652 283.067827,8.14701248 170.601064,14.3558244 C58.1343021,20.5646363 5.04260652,91.9659736 5.04260652,172.765415 L5.04260652,1762.13638 C12.5103571,1851.59617 88.978111,1892.97309 159.562597,1900.86728 C164.418124,1901.73877 169.410703,1902.53796 174.543133,1903.26436 C242.603871,1912.89718 280.300706,1911.88398 342.466698,1909.63645 Z M342.466698,1909.63645 C264.066139,1907.88851 218.325073,1904.86158 170.601061,1901.83465 C166.944919,1901.60276 163.261837,1901.281 159.562597,1900.86728 C59.0073366,1882.81916 17.2487231,1833.76391 9.77305168,1758.01105 L9.77305168,176.649942 C9.77305168,96.2577007 62.6119297,25.2162006 174.543136,19.0386789 C286.474342,12.8611571 395.023962,9.77239625 505.264375,9.77239625 C614.726846,9.77239625 721.7348,14.4055376 833.651789,19.0386789 C953.355543,25.2162006 998.43609,96.2577007 998.43609,178.447697 L998.43609,1758.01105 C984.445576,1855.30702 895.838982,1892.37215 833.651789,1897.00529 C759.042839,1903.18281 694.518876,1906.27157 505.264375,1906.27157 C431.612496,1906.27157 382.073431,1908.20453 342.466698,1909.63645 Z" id="Rectangle-31" fill="url(#linearGradient-4)"></path>
                    <g id="Rectangle-30">
                        <use fill="url(#linearGradient-5)" xlink:href="#path-7"></use>
                        <use fill="url(#linearGradient-6)" xlink:href="#path-7"></use>
                    </g>
                </g>
                <g id="camera" transform="translate(786.604010, 80.639098)">
                    <g id="Oval-12">
                        <use fill="url(#linearGradient-8)" fill-rule="evenodd" xlink:href="#path-10"></use>
                        <use stroke="url(#linearGradient-9)" mask="url(#mask-11)" stroke-width="8" xlink:href="#path-10"></use>
                    </g>
                    <g id="Oval-13">
                        <use fill="url(#linearGradient-12)" fill-rule="evenodd" xlink:href="#path-13"></use>
                        <use fill="black" fill-opacity="1" filter="url(#filter-14)" xlink:href="#path-13"></use>
                    </g>
                    <g id="Oval-14">
                        <use fill="url(#linearGradient-12)" fill-rule="evenodd" xlink:href="#path-15"></use>
                        <use fill="black" fill-opacity="1" filter="url(#filter-16)" xlink:href="#path-15"></use>
                    </g>
                </g>
                <g id="buttons" transform="translate(335.333333, 620.240602)">
                    <path d="M0,1243.00251 C0,1233.25516 7.89944029,1225.35338 17.6513302,1225.35338 L310.118093,1225.35338 C319.866654,1225.35338 327.769424,1233.25302 327.769424,1243.00251 C327.769424,1252.74985 319.869983,1260.65163 310.118093,1260.65163 L17.6513302,1260.65163 C7.90276969,1260.65163 0,1252.75199 0,1243.00251 Z M7.56390977,1243.00251 C7.56390977,1237.4326 12.0725868,1232.91729 17.648857,1232.91729 L30.9822815,1232.91729 L310.121971,1232.91729 C315.690958,1232.91729 320.205514,1237.43137 320.205514,1243.00251 C320.205514,1248.57242 315.695671,1253.08772 310.113508,1253.08772 L17.6559151,1253.08772 C12.0822545,1253.08772 7.56390977,1248.57364 7.56390977,1243.00251 Z" id="home" fill="url(#linearGradient-17)"></path>
                    <rect id="2" fill="url(#linearGradient-18)" x="663.102757" y="199.182957" width="7.56390977" height="216.83208" rx="2"></rect>
                    <rect id="1" fill="url(#linearGradient-18)" x="663.102757" y="-1.13686838e-13" width="7.56390977" height="108.41604" rx="2"></rect>
                </g>
                <path d="M335.333333,93.2882206 C335.333333,83.5408792 343.232774,75.6390977 352.984663,75.6390977 L645.451427,75.6390977 C655.199987,75.6390977 663.102757,83.538736 663.102757,93.2882206 C663.102757,103.035562 655.203317,110.937343 645.451427,110.937343 L352.984663,110.937343 C343.236103,110.937343 335.333333,103.037705 335.333333,93.2882206 Z M342.897243,93.2882206 C342.897243,87.7183112 347.407086,83.2030075 352.989248,83.2030075 L645.446842,83.2030075 C651.020502,83.2030075 655.538847,87.7170865 655.538847,93.2882206 C655.538847,98.8581299 651.029004,103.373434 645.446842,103.373434 L352.989248,103.373434 C347.415588,103.373434 342.897243,98.8593546 342.897243,93.2882206 Z" id="speaker" fill="url(#linearGradient-19)"></path>
            </g>
            <rect id="Screen" fill="#000000" x="177.5" y="54" width="1600" height="900" rx="8"></rect>
        </g>
    </g>
</svg>