<svg width="327" height="96" viewBox="0 0 327 96" version="1.1" xmlns="http://www.w3.org/2000/svg" xmlns:xlink="http://www.w3.org/1999/xlink" xmlns:figma="http://www.figma.com/figma/ns">
<title>Logo</title>
<desc>Created using Figma</desc>
<g id="Canvas" transform="translate(164 49)" figma:type="canvas">
<g id="Logo" style="mix-blend-mode:normal;" figma:type="frame">
<g id="Rectangle" style="mix-blend-mode:normal;" figma:type="vector">
<use xlink:href="#path0_fill" transform="translate(-164 -41.5)" fill="#282028" style="mix-blend-mode:normal;"/>
<mask id="mask0_outline_ins">
<use xlink:href="#path0_fill" fill="white" transform="translate(-164 -41.5)"/>
</mask>
<g mask="url(#mask0_outline_ins)">
<use xlink:href="#path1_stroke_2x" transform="translate(-164 -41.5)" fill="#DE4D5F" style="mix-blend-mode:normal;"/>
<use xlink:href="#path1_stroke_2x" transform="translate(-164 -41.5)" fill="#282028" style="mix-blend-mode:normal;"/>
</g>
</g>
<g id="SNEX" style="mix-blend-mode:normal;" figma:type="frame">
<g id="Letters" style="mix-blend-mode:normal;" figma:type="vector-operation">
<use xlink:href="#path2_fill" transform="translate(-121.706 -27.9986)" fill="#DE4D5F" style="mix-blend-mode:normal;"/>
</g>
<g id="X" style="mix-blend-mode:normal;" figma:type="vector">
<use xlink:href="#path3_fill" transform="translate(22.8523 -44.8481)" fill="#FFFFFF" style="mix-blend-mode:normal;"/>
<use xlink:href="#path4_stroke" transform="translate(22.8523 -44.8481)" fill="#282028" style="mix-blend-mode:normal;"/>
</g>
</g>
</g>
</g>
<defs>
<path id="path0_fill" fill-rule="evenodd" d="M 0 40.75C 0 18.2444 18.2444 0 40.75 0L 286.25 0C 308.756 0 327 18.2444 327 40.75L 327 40.75C 327 63.2556 308.756 81.5 286.25 81.5L 40.75 81.5C 18.2444 81.5 0 63.2556 0 40.75L 0 40.75Z"/>
<path id="path1_stroke_2x" d="M 40.75 7L 286.25 7L 286.25 -7L 40.75 -7L 40.75 7ZM 286.25 74.5L 40.75 74.5L 40.75 88.5L 286.25 88.5L 286.25 74.5ZM 40.75 -7C 14.3784 -7 -7 14.3784 -7 40.75L 7 40.75C 7 22.1104 22.1104 7 40.75 7L 40.75 -7ZM 286.25 7C 304.89 7 320 22.1104 320 40.75L 334 40.75C 334 14.3784 312.622 -7 286.25 -7L 286.25 7ZM 320 40.75C 320 59.3896 304.89 74.5 286.25 74.5L 286.25 88.5C 312.622 88.5 334 67.1216 334 40.75L 320 40.75ZM 40.75 74.5C 22.1104 74.5 7 59.3896 7 40.75L -7 40.75C -7 67.1216 14.3784 88.5 40.75 88.5L 40.75 74.5Z"/>
<path id="path2_fill" fill-rule="evenodd" d="M 20.5591 33.9667L 38.8496 34.0779L 36.4922 40.6369L 8.53223 40.6369L 0 54.3878L 41.9404 54.3878C 43.4478 54.3878 44.8872 53.8234 46.2578 52.6946C 47.6284 51.5658 48.8618 50.1462 49.9585 48.4359C 51.0547 46.7256 51.9287 44.8614 52.5796 42.8432C 53.2305 40.825 53.5562 38.9266 53.5562 37.1479L 53.5562 36.5322C 53.5562 34.9587 53.3677 33.2484 52.9907 31.4012C 52.6138 29.5541 52.0142 27.8267 51.1919 26.219C 50.3696 24.6113 49.3242 23.2773 48.0566 22.2169C 46.7886 21.1565 45.2983 20.6263 43.585 20.6263L 25.2861 20.8943L 28.1416 14.1243L 59.9082 13.768L 64.5552 0L 22.6147 0C 21.0386 0 19.4966 0.632797 17.9893 1.89844C 16.4814 3.16406 15.1108 4.73753 13.8774 6.61888C 12.6436 8.50023 11.6499 10.4842 10.8965 12.5708C 10.1426 14.6573 9.76562 16.5216 9.76562 18.1635C 9.76562 19.9422 10.0225 21.7551 10.5366 23.6022C 11.0503 25.4494 11.77 27.1426 12.6953 28.6819C 13.6201 30.2211 14.751 31.4868 16.0874 32.4787C 17.4238 33.4707 18.9141 33.9667 20.5591 33.9667ZM 177.233 0.0668793L 190.706 0.0668793L 190.706 13.8169L 167.597 13.8169C 167.523 13.8413 167.456 13.8535 167.394 13.8535L 142.004 13.8535L 140.091 20.5169L 187.206 20.5169L 187.206 34.2669L 152.48 34.2669L 152.386 34.3772L 136.042 34.3772L 134.191 40.5343L 165.75 40.5343C 165.681 40.6711 165.544 40.9619 165.338 41.4065C 165.132 41.8512 164.91 42.313 164.67 42.7919L 164.002 44.1259C 163.796 44.5364 163.659 44.7758 163.591 44.8443C 163.111 45.6652 162.443 46.623 161.586 47.7176C 160.729 48.8122 159.89 49.8555 159.068 50.8474C 158.245 51.8394 157.526 52.6775 156.909 53.3616C 156.292 54.0457 155.95 54.3878 155.881 54.3878L 114.455 54.3878L 130.388 0L 177.262 0C 177.253 0.0221405 177.243 0.0444336 177.233 0.0668793ZM 57.022 54.3878L 72.8521 54.3878L 81.6924 23.8075L 86.3184 54.3878L 106.26 54.3878L 122.091 0L 106.466 0L 97.5229 30.5803L 92.7944 0L 72.9551 0L 57.022 54.3878Z"/>
<path id="path3_fill" fill-rule="evenodd" d="M 28.495 88.1664L 47.6583 67.0397L 54.6571 88.1664L 82.9855 88.1664L 68.6547 43.9168L 97.9811 11.7131C 102.075 7.21792 98.8854 0 92.8055 0L 79.986 0L 61.156 20.794L 54.4905 0L 25.9955 0L 40.1597 43.9168L 0 88.1664L 28.495 88.1664Z"/>
<path id="path4_stroke" d="M 28.495 88.1664L 28.495 91.4164L 29.9349 91.4164L 30.9023 90.3499L 28.495 88.1664ZM 47.6583 67.0397L 50.7435 66.0177L 48.9923 60.7317L 45.2511 64.8562L 47.6583 67.0397ZM 54.6571 88.1664L 51.572 89.1884L 52.3101 91.4164L 54.6571 91.4164L 54.6571 88.1664ZM 82.9855 88.1664L 82.9855 91.4164L 87.4543 91.4164L 86.0774 87.165L 82.9855 88.1664ZM 68.6547 43.9168L 66.2518 41.7286L 64.9815 43.1234L 65.5628 44.9182L 68.6547 43.9168ZM 79.986 0L 79.986 -3.25L 78.5446 -3.25L 77.577 -2.18152L 79.986 0ZM 61.156 20.794L 58.0611 21.786L 59.7816 27.1535L 63.565 22.9755L 61.156 20.794ZM 54.4905 0L 57.5854 -0.992065L 56.8616 -3.25L 54.4905 -3.25L 54.4905 0ZM 25.9955 0L 25.9955 -3.25L 21.5324 -3.25L 22.9024 0.997598L 25.9955 0ZM 40.1597 43.9168L 42.5663 46.101L 43.8299 44.7087L 43.2528 42.9192L 40.1597 43.9168ZM 0 88.1664L -2.40662 85.9822L -7.33854 91.4164L 0 91.4164L 0 88.1664ZM 30.9023 90.3499L 50.0656 69.2232L 45.2511 64.8562L 26.0878 85.9829L 30.9023 90.3499ZM 44.5732 68.0618L 51.572 89.1884L 57.7422 87.1444L 50.7435 66.0177L 44.5732 68.0618ZM 54.6571 91.4164L 82.9855 91.4164L 82.9855 84.9164L 54.6571 84.9164L 54.6571 91.4164ZM 86.0774 87.165L 71.7466 42.9155L 65.5628 44.9182L 79.8936 89.1677L 86.0774 87.165ZM 71.0576 46.1051L 100.384 13.9014L 95.5782 9.52489L 66.2518 41.7286L 71.0576 46.1051ZM 92.8055 -3.25L 79.986 -3.25L 79.986 3.25L 92.8055 3.25L 92.8055 -3.25ZM 77.577 -2.18152L 58.747 18.6124L 63.565 22.9755L 82.3951 2.18152L 77.577 -2.18152ZM 64.2509 19.8019L 57.5854 -0.992065L 51.3956 0.992065L 58.0611 21.786L 64.2509 19.8019ZM 54.4905 -3.25L 25.9955 -3.25L 25.9955 3.25L 54.4905 3.25L 54.4905 -3.25ZM 22.9024 0.997598L 37.0666 44.9144L 43.2528 42.9192L 29.0886 -0.997598L 22.9024 0.997598ZM 37.753 41.7327L -2.40662 85.9822L 2.40662 90.3506L 42.5663 46.101L 37.753 41.7327ZM 0 91.4164L 28.495 91.4164L 28.495 84.9164L 0 84.9164L 0 91.4164ZM 100.384 13.9014C 106.378 7.31909 101.708 -3.25 92.8055 -3.25L 92.8055 3.25C 96.0626 3.25 97.7712 7.11674 95.5782 9.52489L 100.384 13.9014Z"/>
</defs>
</svg>
